<svg id="svg" version="1.1" xmlns="http://www.w3.org/2000/svg" xmlns:xlink="http://www.w3.org/1999/xlink" viewBox="0, 0, 400,400">
    <g id="svgg">
        <path id="path0" d="M190.000 30.951 C 183.632 33.401,159.961 42.242,137.398 50.598 C 114.836 58.953,97.310 65.899,98.451 66.033 C 99.592 66.168,123.500 65.201,151.579 63.886 L 202.632 61.494 228.421 74.031 C 242.605 80.926,264.750 91.696,277.632 97.965 L 301.053 109.363 301.040 173.892 L 301.028 238.421 291.371 250.000 C 279.307 264.465,234.764 309.132,220.000 321.571 C 213.921 326.693,207.793 331.868,206.382 333.073 L 203.817 335.263 206.160 331.579 C 216.786 314.868,220.582 293.881,216.741 273.088 C 215.225 264.885,215.256 264.913,210.739 267.737 C 182.311 285.514,161.679 251.849,181.183 219.512 C 183.524 215.631,185.230 212.248,184.976 211.993 C 184.721 211.739,182.236 209.912,179.454 207.934 L 174.395 204.337 177.301 203.607 C 187.194 201.124,219.155 208.176,211.803 211.219 C 206.398 213.457,202.701 218.937,206.579 218.964 C 217.491 219.038,241.862 229.596,256.357 240.527 L 265.445 247.382 268.441 245.249 C 281.294 236.097,289.474 217.518,289.474 197.477 L 289.474 187.923 285.740 193.467 C 281.432 199.864,281.704 199.919,275.211 191.303 C 267.389 180.923,265.466 176.368,267.812 173.775 C 269.640 171.756,269.570 171.543,265.502 166.636 C 253.461 152.117,238.887 124.936,232.168 104.466 C 231.169 101.422,229.965 99.170,229.492 99.462 C 228.202 100.260,226.129 109.808,225.949 115.784 C 225.861 118.681,225.553 121.046,225.263 121.041 C 221.132 120.971,192.098 93.082,181.053 78.575 C 177.289 73.632,173.855 69.562,173.421 69.531 C 170.172 69.296,174.054 100.182,178.370 108.909 C 181.669 115.581,182.411 115.613,168.390 108.481 C 140.535 94.313,109.659 86.352,82.455 86.324 C 69.212 86.311,69.213 86.308,79.180 96.719 C 89.394 107.385,98.362 119.663,95.188 118.632 C 94.071 118.270,89.842 116.783,85.789 115.329 C 81.737 113.876,77.355 112.674,76.053 112.659 L 73.684 112.632 73.684 180.909 L 73.684 249.186 82.944 261.698 C 110.347 298.730,147.375 334.871,186.842 363.109 C 204.449 375.707,201.448 375.437,215.393 365.674 C 256.779 336.701,299.128 295.252,326.131 257.291 L 332.632 248.152 332.632 168.989 L 332.632 89.826 308.684 78.132 C 295.513 71.700,266.340 57.411,243.854 46.377 C 221.369 35.343,202.658 26.356,202.275 26.406 C 201.892 26.456,196.368 28.501,190.000 30.951 M243.709 162.362 C 247.950 168.740,252.501 183.301,249.221 180.000 C 239.406 170.121,232.842 154.737,238.442 154.737 C 238.550 154.737,240.920 158.168,243.709 162.362 " stroke="none" fill="#1e1c29" fill-rule="evenodd"></path>
        <style>
            @media (prefers-color-scheme: dark) {
                path {fill: #D7dAE0;}
            }
        </style>
    </g>
</svg>
